
<svg width="512" height="512" viewBox="0 0 512 512" fill="none" xmlns="http://www.w3.org/2000/svg">
  <rect width="512" height="512" rx="128" fill="#E8F5E9"/>
  <path d="M256 128C187.307 128 128 187.307 128 256C128 324.693 187.307 384 256 384C324.693 384 384 324.693 384 256C384 187.307 324.693 128 256 128ZM256 352C205.019 352 160 306.981 160 256C160 205.019 205.019 160 256 160C306.981 160 352 205.019 352 256C352 306.981 306.981 352 256 352Z" fill="#4CAF50"/>
  <path d="M256 176C213.49 176 176 213.49 176 256C176 298.51 213.49 336 256 336C298.51 336 336 298.51 336 256C336 213.49 298.51 176 256 176ZM256 304C231.371 304 208 280.629 208 256C208 231.371 231.371 208 256 208C280.629 208 304 231.371 304 256C304 280.629 280.629 304 256 304Z" fill="#03A9F4"/>
  <path d="M256 224C247.163 224 240 231.163 240 240C240 248.837 247.163 256 256 256C264.837 256 272 248.837 272 240C272 231.163 264.837 224 256 224Z" fill="#FF9800"/>
</svg>
