
<svg width="800" height="600" viewBox="0 0 800 600" xmlns="http://www.w3.org/2000/svg">
  <rect width="800" height="600" fill="#ECEFF1" />
  <path d="M0 100 L800 100 L800 500 L0 500 Z" fill="#CFD8DC" />
  <path d="M200 100 L300 200 L250 300 L350 400 L300 500 L200 500 L150 400 L100 300 L150 200 Z" fill="#B0BEC5" />
  <path d="M500 100 L600 200 L550 300 L650 400 L600 500 L500 500 L450 400 L400 300 L450 200 Z" fill="#B0BEC5" />
  <circle cx="250" cy="200" r="20" fill="#4CAF50" opacity="0.6" />
  <circle cx="350" cy="350" r="25" fill="#FFEB3B" opacity="0.6" />
  <circle cx="500" cy="250" r="30" fill="#F44336" opacity="0.6" />
  <circle cx="600" cy="400" r="15" fill="#9C27B0" opacity="0.6" />
  <line x1="0" y1="150" x2="800" y2="150" stroke="#FFFFFF" stroke-width="1" stroke-dasharray="5,5" />
  <line x1="0" y1="250" x2="800" y2="250" stroke="#FFFFFF" stroke-width="1" stroke-dasharray="5,5" />
  <line x1="0" y1="350" x2="800" y2="350" stroke="#FFFFFF" stroke-width="1" stroke-dasharray="5,5" />
  <line x1="0" y1="450" x2="800" y2="450" stroke="#FFFFFF" stroke-width="1" stroke-dasharray="5,5" />
  <line x1="100" y1="100" x2="100" y2="500" stroke="#FFFFFF" stroke-width="1" stroke-dasharray="5,5" />
  <line x1="300" y1="100" x2="300" y2="500" stroke="#FFFFFF" stroke-width="1" stroke-dasharray="5,5" />
  <line x1="500" y1="100" x2="500" y2="500" stroke="#FFFFFF" stroke-width="1" stroke-dasharray="5,5" />
  <line x1="700" y1="100" x2="700" y2="500" stroke="#FFFFFF" stroke-width="1" stroke-dasharray="5,5" />
  <text x="400" y="50" font-family="Arial" font-size="18" text-anchor="middle" fill="#546E7A">Map Placeholder</text>
  <text x="400" y="550" font-family="Arial" font-size="12" text-anchor="middle" fill="#546E7A">Color indicates pollution level (Green: Good, Yellow: Moderate, Red: Poor, Purple: Very Poor)</text>
</svg>
